<?xml version="1.0" encoding="UTF-8"?>
<svg id="Layer_3" data-name="Layer 3" xmlns="http://www.w3.org/2000/svg" viewBox="0 0 1514.65 355.32">
  <defs>
    <style>
      .cls-1 {
        fill: #06c;
      }

      .cls-2 {
        fill: #282828;
      }
    </style>
  </defs>
  <g id="type">
    <g>
      <path class="cls-2" d="M496.28,257.54c-15.49,0-28.05-2.09-37.68-6.28-9.64-4.18-16.87-9.99-21.69-17.42-4.82-7.42-7.62-15.8-8.41-25.12h18.49c.47,7.58,3,13.71,7.58,18.37,4.58,4.66,10.62,8.1,18.13,10.31,7.5,2.21,15.76,3.32,24.77,3.32,13.27,0,23.78-2.33,31.52-6.99,7.74-4.66,11.61-11.57,11.61-20.74,0-5.53-1.94-9.99-5.81-13.39-3.87-3.4-9.01-6.2-15.4-8.41-6.4-2.21-13.39-4.23-20.97-6.04-7.58-1.81-15.21-3.75-22.87-5.81-7.67-2.05-14.69-4.66-21.09-7.82-6.4-3.16-11.54-7.23-15.41-12.21-3.87-4.98-5.81-11.34-5.81-19.08,0-12.8,4.94-23.23,14.81-31.28,9.87-8.06,24.61-12.09,44.2-12.09,13.9,0,25.36,2.1,34.37,6.28,9.01,4.19,15.76,9.68,20.26,16.47,4.5,6.8,6.99,14.14,7.47,22.04h-18.25c-.95-7.9-4.9-14.58-11.85-20.03-6.95-5.45-17.62-8.18-32-8.18-8.85,0-16.04,.87-21.57,2.61-5.53,1.74-9.76,3.99-12.68,6.75-2.93,2.77-4.9,5.65-5.92,8.65-1.03,3-1.54,5.85-1.54,8.53,0,5.21,1.93,9.44,5.81,12.68,3.87,3.24,9.01,5.93,15.4,8.06,6.4,2.13,13.47,4.07,21.21,5.81,7.74,1.74,15.44,3.67,23.11,5.81,7.66,2.13,14.69,4.82,21.09,8.06,6.4,3.24,11.53,7.39,15.4,12.44,3.87,5.06,5.81,11.54,5.81,19.43,0,14.54-5.53,25.71-16.59,33.54-11.06,7.82-26.23,11.73-45.5,11.73Z"/>
      <path class="cls-2" d="M630.89,257.54c-11.54,0-21.61-2.73-30.22-8.18-8.61-5.45-15.29-12.83-20.03-22.16-4.74-9.32-7.11-19.59-7.11-30.81s2.37-21.69,7.11-30.93c4.74-9.24,11.41-16.59,20.03-22.04,8.61-5.45,18.68-8.18,30.22-8.18,9.79,0,18.21,1.9,25.24,5.69,7.03,3.79,12.76,8.93,17.18,15.4v-19.2h17.77v118.5h-17.77v-18.96c-4.43,6.32-10.15,11.38-17.18,15.17-7.03,3.79-15.45,5.69-25.24,5.69Zm2.37-16.12c8.85,0,16.31-2.05,22.4-6.16,6.08-4.11,10.7-9.6,13.86-16.47,3.16-6.87,4.74-14.34,4.74-22.4s-1.58-15.72-4.74-22.51c-3.16-6.79-7.78-12.24-13.86-16.35-6.08-4.11-13.55-6.16-22.4-6.16s-16.2,2.06-22.52,6.16c-6.32,4.11-11.14,9.56-14.46,16.35-3.32,6.79-4.98,14.3-4.98,22.51s1.66,15.52,4.98,22.4,8.14,12.37,14.46,16.47c6.32,4.11,13.82,6.16,22.52,6.16Z"/>
      <path class="cls-2" d="M720.71,255.65V89.75h17.78V255.65h-17.78Z"/>
      <path class="cls-2" d="M800.34,255.65l-46.45-118.5h19.43l37.45,99.54,37.21-99.54h19.43l-46.21,118.5h-20.86Z"/>
      <path class="cls-2" d="M930.46,257.54c-11.54,0-21.61-2.73-30.22-8.18-8.61-5.45-15.29-12.83-20.03-22.16-4.74-9.32-7.11-19.59-7.11-30.81s2.37-21.69,7.11-30.93c4.74-9.24,11.41-16.59,20.03-22.04,8.61-5.45,18.68-8.18,30.22-8.18,9.79,0,18.21,1.9,25.24,5.69,7.03,3.79,12.76,8.93,17.18,15.4v-19.2h17.78v118.5h-17.78v-18.96c-4.42,6.32-10.15,11.38-17.18,15.17-7.03,3.79-15.45,5.69-25.24,5.69Zm2.37-16.12c8.85,0,16.31-2.05,22.4-6.16,6.08-4.11,10.7-9.6,13.87-16.47,3.16-6.87,4.74-14.34,4.74-22.4s-1.58-15.72-4.74-22.51c-3.16-6.79-7.79-12.24-13.87-16.35-6.08-4.11-13.55-6.16-22.4-6.16s-16.2,2.06-22.51,6.16c-6.32,4.11-11.14,9.56-14.46,16.35-3.32,6.79-4.98,14.3-4.98,22.51s1.66,15.52,4.98,22.4,8.14,12.37,14.46,16.47c6.32,4.11,13.82,6.16,22.51,6.16Z"/>
      <path class="cls-2" d="M1118.39,255.65l-63.52-156.89h19.43l54.27,136.75,54.27-136.75h19.43l-63.52,156.89h-20.38Z"/>
      <path class="cls-2" d="M1216.51,117.24v-23.23h19.2v23.23h-19.2Zm.71,138.41v-118.5h17.77v118.5h-17.77Z"/>
      <path class="cls-2" d="M1314.62,257.54c-11.54,0-21.61-2.73-30.22-8.18-8.61-5.45-15.29-12.83-20.03-22.16-4.74-9.32-7.11-19.59-7.11-30.81s2.37-21.69,7.11-30.93c4.74-9.24,11.41-16.59,20.03-22.04,8.61-5.45,18.68-8.18,30.22-8.18,9.79,0,18.21,1.9,25.24,5.69,7.03,3.79,12.76,8.93,17.18,15.4V89.75h17.78V255.65h-17.78v-18.96c-4.42,6.32-10.15,11.38-17.18,15.17-7.03,3.79-15.45,5.69-25.24,5.69Zm2.37-16.12c8.85,0,16.31-2.05,22.4-6.16,6.08-4.11,10.7-9.6,13.86-16.47,3.16-6.87,4.74-14.34,4.74-22.4s-1.58-15.72-4.74-22.51c-3.16-6.79-7.78-12.24-13.86-16.35-6.08-4.11-13.55-6.16-22.4-6.16s-16.2,2.06-22.52,6.16c-6.32,4.11-11.14,9.56-14.46,16.35-3.32,6.79-4.98,14.3-4.98,22.51s1.66,15.52,4.98,22.4c3.32,6.87,8.14,12.37,14.46,16.47,6.32,4.11,13.82,6.16,22.52,6.16Z"/>
      <path class="cls-2" d="M1454.45,257.54c-11.54,0-21.61-2.73-30.22-8.18-8.61-5.45-15.29-12.83-20.03-22.16-4.74-9.32-7.11-19.59-7.11-30.81s2.37-21.69,7.11-30.93c4.74-9.24,11.41-16.59,20.03-22.04,8.61-5.45,18.68-8.18,30.22-8.18,9.79,0,18.21,1.9,25.24,5.69,7.03,3.79,12.76,8.93,17.18,15.4v-19.2h17.78v118.5h-17.78v-18.96c-4.42,6.32-10.15,11.38-17.18,15.17-7.03,3.79-15.45,5.69-25.24,5.69Zm2.37-16.12c8.85,0,16.31-2.05,22.4-6.16,6.08-4.11,10.7-9.6,13.86-16.47,3.16-6.87,4.74-14.34,4.74-22.4s-1.58-15.72-4.74-22.51c-3.16-6.79-7.78-12.24-13.86-16.35-6.08-4.11-13.55-6.16-22.4-6.16s-16.2,2.06-22.52,6.16c-6.32,4.11-11.14,9.56-14.46,16.35-3.32,6.79-4.98,14.3-4.98,22.51s1.66,15.52,4.98,22.4c3.32,6.87,8.14,12.37,14.46,16.47,6.32,4.11,13.82,6.16,22.52,6.16Z"/>
    </g>
  </g>
  <g id="logo_mono_copy" data-name="logo_mono copy">
    <g>
      <path class="cls-1" d="M126.21,211.03h-17V68.71C109.21,30.82,140.03,0,177.92,0s68.71,30.82,68.71,68.71v21.89h-17v-21.89c0-28.51-23.2-51.71-51.71-51.71s-51.71,23.2-51.71,51.71V211.03Z"/>
      <path class="cls-1" d="M177.92,355.32c-37.89,0-68.71-30.82-68.71-68.71v-21.89h17v21.89c0,28.51,23.2,51.71,51.71,51.71s51.71-23.2,51.71-51.71V144.29h17v142.32c0,37.89-30.82,68.71-68.71,68.71Z"/>
      <path class="cls-1" d="M287.29,246.79h-21.9v-17h21.9c28.51,0,51.71-23.2,51.71-51.71s-23.2-51.71-51.71-51.71H144.97v-17h142.32c37.89,0,68.71,30.82,68.71,68.71s-30.82,68.71-68.71,68.71Z"/>
      <path class="cls-1" d="M211.03,246.79H68.71C30.82,246.79,0,215.97,0,178.08S30.82,109.37,68.71,109.37h21.9v17h-21.9c-28.51,0-51.71,23.2-51.71,51.71s23.2,51.71,51.71,51.71H211.03v17Z"/>
    </g>
  </g>
</svg>