<?xml version="1.0" standalone="no"?>
<!DOCTYPE svg PUBLIC "-//W3C//DTD SVG 20010904//EN"
 "http://www.w3.org/TR/2001/REC-SVG-20010904/DTD/svg10.dtd">
<svg version="1.0" xmlns="http://www.w3.org/2000/svg"
 width="700.000000pt" height="700.000000pt" viewBox="0 0 700.000000 700.000000"
 preserveAspectRatio="xMidYMid meet">
<metadata>
Created by potrace 1.14, written by Peter Selinger 2001-2017
</metadata>
<g transform="translate(0.000000,700.000000) scale(0.100000,-0.100000)"
fill="#000000" stroke="none">
<path d="M3284 6814 c-463 -77 -854 -414 -1004 -862 -69 -207 -65 -115 -65
-1672 l0 -1405 152 -3 152 -3 4 1413 c3 1412 3 1413 24 1493 96 356 349 616
699 717 69 20 101 23 254 23 155 0 184 -3 255 -24 336 -99 596 -358 684 -682
30 -110 41 -230 41 -461 l0 -208 150 0 150 0 0 269 c0 291 -9 373 -56 522
-125 396 -447 719 -839 842 -178 56 -418 72 -601 41z"/>
<path d="M1306 4769 c-562 -65 -1012 -480 -1123 -1036 -26 -132 -23 -376 6
-508 59 -262 182 -479 379 -667 161 -153 341 -252 577 -316 l100 -27 1438 -3
1437 -2 0 149 0 150 -1402 4 c-1515 4 -1432 1 -1588 55 -454 158 -728 621
-645 1093 33 193 115 355 252 500 126 133 298 235 473 280 75 19 119 22 368
26 l282 5 0 154 0 154 -242 -1 c-134 -1 -274 -5 -312 -10z"/>
<path d="M2880 4626 l0 -156 1413 -3 1412 -2 84 -23 c215 -57 416 -192 548
-366 61 -81 138 -241 164 -341 26 -104 36 -281 19 -382 -65 -413 -359 -725
-770 -819 -44 -10 -152 -17 -337 -21 l-273 -6 0 -149 0 -150 308 5 c292 4 312
5 407 30 236 62 417 161 583 321 192 184 314 401 373 661 29 131 32 387 5 510
-115 524 -484 898 -1004 1017 l-97 22 -1417 3 -1418 4 0 -155z"/>
<path d="M4477 2708 c-4 -1516 -1 -1431 -55 -1588 -155 -444 -616 -721 -1075
-646 -333 55 -619 279 -748 586 -65 153 -72 199 -77 508 l-4 282 -154 0 -154
0 0 -222 c0 -309 13 -414 71 -595 61 -186 154 -338 302 -490 191 -196 418
-317 692 -369 131 -25 340 -23 472 5 502 105 870 461 1005 971 l23 85 2 1438
3 1437 -149 0 -150 0 -4 -1402z"/>
</g>
</svg>
